#!OML:ASF H:\Punching\Project 1\Capture day 1\Session 1\female.ASF
:FULLY-SPECIFIED
:DEGREES
2090
root 0.0911292 15.444 3.14635 -4.51274 -2.29998 -7.41918
lowerback 6.26722 -1.26525 -0.0939643
upperback -1.49808 -1.3973 6.40786
thorax -4.92837 -0.591887 6.94259
lowerneck -9.44992 2.04864 12.2655
upperneck 42.9209 0.430669 -2.22872
head 17.5627 1.88206 -3.16987
rclavicle -4.47266e-015 3.18055e-015
rhumerus -2.93326 8.74717 -67.9679
rradius 130.399
rwrist -12.0806
rhand -31.8213 9.79703
rfingers 7.12502
rthumb -5.07617 -20.1222
lclavicle -4.47266e-015 3.18055e-015
lhumerus 3.06265 -30.7973 77.6819
lradius 136.491
lwrist -1.01158
lhand -26.247 5.87417
lfingers 7.12502
lthumb 0.307206 35.8537
rfemur -95.7333 -11.6562 32.2705
rtibia 132.884
rfoot 6.04796 0.206705
rtoes -9.72169
lfemur -14.0384 -7.2119 -20.7333
ltibia 35.6987
lfoot -13.5597 8.58156
ltoes 15.6992
2091
root 0.100313 15.4507 3.10083 -3.43527 -3.24709 -7.10981
lowerback 5.79552 -1.13488 -0.212071
upperback -1.77858 -1.24324 6.21287
thorax -4.97417 -0.509748 6.77625
lowerneck -9.52281 2.33993 12.5619
upperneck 42.6989 0.889303 -2.45851
head 17.5095 2.07305 -3.24903
rclavicle 1.07344e-014 9.54166e-015
rhumerus -2.72677 9.04492 -67.8754
rradius 130.53
rwrist -12.8057
rhand -31.5782 9.66621
rfingers 7.12502
rthumb -4.84141 -20.2585
lclavicle 1.07344e-014 9.54166e-015
lhumerus 3.30587 -30.253 76.8411
lradius 136.623
lwrist -0.93242
lhand -26.2212 6.00879
lfingers 7.12502
lthumb 0.332098 35.9883
rfemur -93.4064 -11.0739 31.8608
rtibia 132.834
rfoot 6.3311 0.438713
rtoes -8.85484
lfemur -15.3527 -6.81211 -20.8192
ltibia 35.7824
lfoot -13.4628 9.01494
ltoes 15.7834
2092
root 0.109821 15.4569 3.05614 -2.39377 -4.21334 -6.8414
lowerback 5.35665 -1.01075 -0.289683
upperback -2.06346 -1.09229 6.01584
thorax -5.04275 -0.430002 6.58801
lowerneck -9.58009 2.63684 12.8734
upperneck 42.4783 1.35589 -2.69473
head 17.4592 2.26909 -3.33164
rclavicle -1.17283e-014 -2.06736e-014
rhumerus -2.5442 9.33623 -67.7999
rradius 130.676
rwrist -13.5236
rhand -31.3129 9.54311
rfingers 7.12502
rthumb -4.58526 -20.3873
lclavicle -1.17283e-014 -2.06736e-014
lhumerus 3.51621 -29.6975 75.9738
lradius 136.761
lwrist -0.887429
lhand -26.1953 6.17238
lfingers 7.12502
lthumb 0.357091 36.1518
rfemur -90.9518 -10.4499 31.3595
rtibia 132.525
rfoot 6.57537 0.574426
rtoes -7.93934
lfemur -16.5899 -6.43369 -20.8788
ltibia 35.7892
lfoot -13.3362 9.47551
ltoes 15.874
2093
root 0.119599 15.4621 3.01249 -1.39049 -5.18779 -6.62357
lowerback 4.94418 -0.896374 -0.318953
upperback -2.34442 -0.949704 5.82094
thorax -5.12096 -0.356088 6.37753
lowerneck -9.63018 2.94166 13.2078
upperneck 42.2551 1.83402 -2.94546
head 17.4127 2.47165 -3.42209
rclavicle 8.94531e-016 -6.36111e-015
rhumerus -2.34612 9.63217 -67.7552
rradius 130.779
rwrist -14.0991
rhand -31.057 9.41549
rfingers 7.12502
rthumb -4.33819 -20.5201
lclavicle 8.94531e-016 -6.36111e-015
lhumerus 3.70853 -29.1286 75.0784
lradius 136.902
lwrist -0.874348
lhand -26.177 6.37336
lfingers 7.12502
lthumb 0.374798 36.3528
rfemur -88.3687 -9.78237 30.7891
rtibia 131.97
rfoot 6.71035 0.622274
rtoes -7.01674
lfemur -17.7956 -6.07634 -20.9014
ltibia 35.8286
lfoot -13.2377 9.95845
ltoes 15.9651
2094
root 0.130952 15.4806 2.96759 -0.435089 -6.16206 -6.45446
lowerback 4.56178 -0.786322 -0.296153
upperback -2.61886 -0.80867 5.6251
thorax -5.20881 -0.285053 6.13856
lowerneck -9.65373 3.24556 13.5572
upperneck 42.0145 2.31043 -3.19704
head 17.3548 2.6752 -3.51435
rclavicle 3.2054e-014 -3.33958e-014
rhumerus -2.14794 9.92837 -67.7365
rradius 130.804
rwrist -14.403
rhand -30.8997 9.36721
rfingers 7.12502
rthumb -4.18624 -20.5714
lclavicle 3.2054e-014 -3.33958e-014
lhumerus 3.88899 -28.5544 74.1674
lradius 137.038
lwrist -0.871904
lhand -26.1642 6.56443
lfingers 7.12502
lthumb 0.387132 36.5438
rfemur -85.5165 -9.11364 30.1557
rtibia 131.067
rfoot 6.68199 0.607151
rtoes -6.08192
lfemur -18.937 -5.73087 -20.8838
ltibia 35.8781
lfoot -13.164 10.4467
ltoes 16.0547
2095
root 0.140454 15.4808 2.92629 0.468194 -7.12843 -6.34065
lowerback 4.21859 -0.687177 -0.223228
upperback -2.88508 -0.678248 5.43459
thorax -5.30845 -0.221457 5.87982
lowerneck -9.67114 3.55072 13.9124
upperneck 41.7784 2.7839 -3.44256
head 17.3032 2.87965 -3.60447
rclavicle -3.99557e-014 6.75868e-014
rhumerus -1.95218 10.2486 -67.7497
rradius 130.742
rwrist -14.3844
rhand -30.8716 9.41333
rfingers 7.12502
rthumb -4.15916 -20.5258
lclavicle -3.99557e-014 6.75868e-014
lhumerus 4.05632 -27.9647 73.2415
lradius 137.17
lwrist -0.876143
lhand -26.1526 6.74857
lfingers 7.12502
lthumb 0.398315 36.7279
rfemur -82.7189 -8.35567 29.5026
rtibia 130.066
rfoot 6.582 0.484019
rtoes -5.19558
lfemur -20.079 -5.39824 -20.8255
ltibia 36.0352
lfoot -13.1384 10.9373
ltoes 16.1158
2096
root 0.149469 15.4792 2.88589 1.31333 -8.07807 -6.27112
lowerback 3.90633 -0.591992 -0.105889
upperback -3.13669 -0.550577 5.24464
thorax -5.40913 -0.16174 5.59817
lowerneck -9.67035 3.84814 14.2642
upperneck 41.5266 3.24112 -3.67003
head 17.2405 3.07876 -3.6869
rclavicle -2.96686e-014 7.79236e-014
rhumerus -1.76983 10.568 -67.7833
rradius 130.615
rwrist -14.0777
rhand -30.955 9.47814
rfingers 7.12502
rthumb -4.2397 -20.4594
lclavicle -2.96686e-014 7.79236e-014
lhumerus 4.22304 -27.3652 72.3156
lradius 137.29
lwrist -0.86144
lhand -26.1407 6.88658
lfingers 7.12502
lthumb 0.409879 36.8659
rfemur -79.8271 -7.56782 28.8312
rtibia 128.857
rfoot 6.39629 0.26894
rtoes -4.33188
lfemur -21.1836 -5.06897 -20.7321
ltibia 36.2602
lfoot -13.1506 11.4082
ltoes 16.1561
2097
root 0.157625 15.4754 2.84625 2.10271 -9.0038 -6.24275
lowerback 3.6176 -0.498157 0.054177
upperback -3.36988 -0.422991 5.05266
thorax -5.50264 -0.104883 5.29125
lowerneck -9.65615 4.13328 14.6004
upperneck 41.2544 3.67144 -3.86376
head 17.1625 3.26803 -3.75392
rclavicle 1.73937e-015 -4.13472e-014
rhumerus -1.59972 10.8687 -67.8373
rradius 130.45
rwrist -13.5696
rhand -31.0886 9.50968
rfingers 7.12502
rthumb -4.36869 -20.4253
lclavicle 1.73937e-015 -4.13472e-014
lhumerus 4.40805 -26.7667 71.387
lradius 137.404
lwrist -0.811827
lhand -26.1252 7.00784
lfingers 7.12502
lthumb 0.42486 36.9872
rfemur -76.8601 -6.75843 28.1613
rtibia 127.467
rfoot 6.15268 -0.0485676
rtoes -3.50162
lfemur -22.289 -4.73863 -20.604
ltibia 36.6312
lfoot -13.2415 11.8455
ltoes 16.1676
